<svg xmlns="http://www.w3.org/2000/svg" version="1.1" xmlns:xlink="http://www.w3.org/1999/xlink" xmlns:svgjs="http://svgjs.dev/svgjs" viewBox="0 0 800 800" opacity="0.16" width="800" height="800"><g stroke-width="2" stroke="#00d3bb" fill="none"><rect width="80" height="4.789473684210526" x="-40" y="-2.394736842105263" stroke="none" fill="#00d3bb" rx="2.394736842105263"></rect><rect width="4.789473684210526" height="80" x="-2.394736842105263" y="-40" stroke="none" fill="#00d3bb" rx="2.394736842105263"></rect><rect width="80" height="4.789473684210526" x="120" y="-2.394736842105263" stroke="none" fill="#00d3bb" rx="2.394736842105263"></rect><rect width="4.789473684210526" height="80" x="157.60526315789474" y="-40" stroke="none" fill="#00d3bb" rx="2.394736842105263"></rect><rect width="80" height="4.789473684210526" x="280" y="-2.394736842105263" stroke="none" fill="#00d3bb" rx="2.394736842105263"></rect><rect width="4.789473684210526" height="80" x="317.60526315789474" y="-40" stroke="none" fill="#00d3bb" rx="2.394736842105263"></rect><rect width="80" height="4.789473684210526" x="440" y="-2.394736842105263" stroke="none" fill="#00d3bb" rx="2.394736842105263"></rect><rect width="4.789473684210526" height="80" x="477.60526315789474" y="-40" stroke="none" fill="#00d3bb" rx="2.394736842105263"></rect><rect width="80" height="4.789473684210526" x="600" y="-2.394736842105263" stroke="none" fill="#00d3bb" rx="2.394736842105263"></rect><rect width="4.789473684210526" height="80" x="637.6052631578947" y="-40" stroke="none" fill="#00d3bb" rx="2.394736842105263"></rect><rect width="80" height="4.789473684210526" x="760" y="-2.394736842105263" stroke="none" fill="#00d3bb" rx="2.394736842105263"></rect><rect width="4.789473684210526" height="80" x="797.6052631578947" y="-40" stroke="none" fill="#00d3bb" rx="2.394736842105263"></rect><rect width="80" height="4.789473684210526" x="-40" y="157.60526315789474" stroke="none" fill="#00d3bb" rx="2.394736842105263"></rect><rect width="4.789473684210526" height="80" x="-2.394736842105263" y="120" stroke="none" fill="#00d3bb" rx="2.394736842105263"></rect><rect width="80" height="4.789473684210526" x="120" y="157.60526315789474" stroke="none" fill="#00d3bb" rx="2.394736842105263"></rect><rect width="4.789473684210526" height="80" x="157.60526315789474" y="120" stroke="none" fill="#00d3bb" rx="2.394736842105263"></rect><rect width="80" height="4.789473684210526" x="280" y="157.60526315789474" stroke="none" fill="#00d3bb" rx="2.394736842105263"></rect><rect width="4.789473684210526" height="80" x="317.60526315789474" y="120" stroke="none" fill="#00d3bb" rx="2.394736842105263"></rect><rect width="80" height="4.789473684210526" x="440" y="157.60526315789474" stroke="none" fill="#00d3bb" rx="2.394736842105263"></rect><rect width="4.789473684210526" height="80" x="477.60526315789474" y="120" stroke="none" fill="#00d3bb" rx="2.394736842105263"></rect><rect width="80" height="4.789473684210526" x="600" y="157.60526315789474" stroke="none" fill="#00d3bb" rx="2.394736842105263"></rect><rect width="4.789473684210526" height="80" x="637.6052631578947" y="120" stroke="none" fill="#00d3bb" rx="2.394736842105263"></rect><rect width="80" height="4.789473684210526" x="760" y="157.60526315789474" stroke="none" fill="#00d3bb" rx="2.394736842105263"></rect><rect width="4.789473684210526" height="80" x="797.6052631578947" y="120" stroke="none" fill="#00d3bb" rx="2.394736842105263"></rect><rect width="80" height="4.789473684210526" x="-40" y="317.60526315789474" stroke="none" fill="#00d3bb" rx="2.394736842105263"></rect><rect width="4.789473684210526" height="80" x="-2.394736842105263" y="280" stroke="none" fill="#00d3bb" rx="2.394736842105263"></rect><rect width="80" height="4.789473684210526" x="120" y="317.60526315789474" stroke="none" fill="#00d3bb" rx="2.394736842105263"></rect><rect width="4.789473684210526" height="80" x="157.60526315789474" y="280" stroke="none" fill="#00d3bb" rx="2.394736842105263"></rect><rect width="80" height="4.789473684210526" x="280" y="317.60526315789474" stroke="none" fill="#00d3bb" rx="2.394736842105263"></rect><rect width="4.789473684210526" height="80" x="317.60526315789474" y="280" stroke="none" fill="#00d3bb" rx="2.394736842105263"></rect><rect width="80" height="4.789473684210526" x="440" y="317.60526315789474" stroke="none" fill="#00d3bb" rx="2.394736842105263"></rect><rect width="4.789473684210526" height="80" x="477.60526315789474" y="280" stroke="none" fill="#00d3bb" rx="2.394736842105263"></rect><rect width="80" height="4.789473684210526" x="600" y="317.60526315789474" stroke="none" fill="#00d3bb" rx="2.394736842105263"></rect><rect width="4.789473684210526" height="80" x="637.6052631578947" y="280" stroke="none" fill="#00d3bb" rx="2.394736842105263"></rect><rect width="80" height="4.789473684210526" x="760" y="317.60526315789474" stroke="none" fill="#00d3bb" rx="2.394736842105263"></rect><rect width="4.789473684210526" height="80" x="797.6052631578947" y="280" stroke="none" fill="#00d3bb" rx="2.394736842105263"></rect><rect width="80" height="4.789473684210526" x="-40" y="477.60526315789474" stroke="none" fill="#00d3bb" rx="2.394736842105263"></rect><rect width="4.789473684210526" height="80" x="-2.394736842105263" y="440" stroke="none" fill="#00d3bb" rx="2.394736842105263"></rect><rect width="80" height="4.789473684210526" x="120" y="477.60526315789474" stroke="none" fill="#00d3bb" rx="2.394736842105263"></rect><rect width="4.789473684210526" height="80" x="157.60526315789474" y="440" stroke="none" fill="#00d3bb" rx="2.394736842105263"></rect><rect width="80" height="4.789473684210526" x="280" y="477.60526315789474" stroke="none" fill="#00d3bb" rx="2.394736842105263"></rect><rect width="4.789473684210526" height="80" x="317.60526315789474" y="440" stroke="none" fill="#00d3bb" rx="2.394736842105263"></rect><rect width="80" height="4.789473684210526" x="440" y="477.60526315789474" stroke="none" fill="#00d3bb" rx="2.394736842105263"></rect><rect width="4.789473684210526" height="80" x="477.60526315789474" y="440" stroke="none" fill="#00d3bb" rx="2.394736842105263"></rect><rect width="80" height="4.789473684210526" x="600" y="477.60526315789474" stroke="none" fill="#00d3bb" rx="2.394736842105263"></rect><rect width="4.789473684210526" height="80" x="637.6052631578947" y="440" stroke="none" fill="#00d3bb" rx="2.394736842105263"></rect><rect width="80" height="4.789473684210526" x="760" y="477.60526315789474" stroke="none" fill="#00d3bb" rx="2.394736842105263"></rect><rect width="4.789473684210526" height="80" x="797.6052631578947" y="440" stroke="none" fill="#00d3bb" rx="2.394736842105263"></rect><rect width="80" height="4.789473684210526" x="-40" y="637.6052631578947" stroke="none" fill="#00d3bb" rx="2.394736842105263"></rect><rect width="4.789473684210526" height="80" x="-2.394736842105263" y="600" stroke="none" fill="#00d3bb" rx="2.394736842105263"></rect><rect width="80" height="4.789473684210526" x="120" y="637.6052631578947" stroke="none" fill="#00d3bb" rx="2.394736842105263"></rect><rect width="4.789473684210526" height="80" x="157.60526315789474" y="600" stroke="none" fill="#00d3bb" rx="2.394736842105263"></rect><rect width="80" height="4.789473684210526" x="280" y="637.6052631578947" stroke="none" fill="#00d3bb" rx="2.394736842105263"></rect><rect width="4.789473684210526" height="80" x="317.60526315789474" y="600" stroke="none" fill="#00d3bb" rx="2.394736842105263"></rect><rect width="80" height="4.789473684210526" x="440" y="637.6052631578947" stroke="none" fill="#00d3bb" rx="2.394736842105263"></rect><rect width="4.789473684210526" height="80" x="477.60526315789474" y="600" stroke="none" fill="#00d3bb" rx="2.394736842105263"></rect><rect width="80" height="4.789473684210526" x="600" y="637.6052631578947" stroke="none" fill="#00d3bb" rx="2.394736842105263"></rect><rect width="4.789473684210526" height="80" x="637.6052631578947" y="600" stroke="none" fill="#00d3bb" rx="2.394736842105263"></rect><rect width="80" height="4.789473684210526" x="760" y="637.6052631578947" stroke="none" fill="#00d3bb" rx="2.394736842105263"></rect><rect width="4.789473684210526" height="80" x="797.6052631578947" y="600" stroke="none" fill="#00d3bb" rx="2.394736842105263"></rect><rect width="80" height="4.789473684210526" x="-40" y="797.6052631578947" stroke="none" fill="#00d3bb" rx="2.394736842105263"></rect><rect width="4.789473684210526" height="80" x="-2.394736842105263" y="760" stroke="none" fill="#00d3bb" rx="2.394736842105263"></rect><rect width="80" height="4.789473684210526" x="120" y="797.6052631578947" stroke="none" fill="#00d3bb" rx="2.394736842105263"></rect><rect width="4.789473684210526" height="80" x="157.60526315789474" y="760" stroke="none" fill="#00d3bb" rx="2.394736842105263"></rect><rect width="80" height="4.789473684210526" x="280" y="797.6052631578947" stroke="none" fill="#00d3bb" rx="2.394736842105263"></rect><rect width="4.789473684210526" height="80" x="317.60526315789474" y="760" stroke="none" fill="#00d3bb" rx="2.394736842105263"></rect><rect width="80" height="4.789473684210526" x="440" y="797.6052631578947" stroke="none" fill="#00d3bb" rx="2.394736842105263"></rect><rect width="4.789473684210526" height="80" x="477.60526315789474" y="760" stroke="none" fill="#00d3bb" rx="2.394736842105263"></rect><rect width="80" height="4.789473684210526" x="600" y="797.6052631578947" stroke="none" fill="#00d3bb" rx="2.394736842105263"></rect><rect width="4.789473684210526" height="80" x="637.6052631578947" y="760" stroke="none" fill="#00d3bb" rx="2.394736842105263"></rect><rect width="80" height="4.789473684210526" x="760" y="797.6052631578947" stroke="none" fill="#00d3bb" rx="2.394736842105263"></rect><rect width="4.789473684210526" height="80" x="797.6052631578947" y="760" stroke="none" fill="#00d3bb" rx="2.394736842105263"></rect></g></svg>