<svg xmlns="http://www.w3.org/2000/svg" version="1.1" xmlns:xlink="http://www.w3.org/1999/xlink" xmlns:svgjs="http://svgjs.dev/svgjs" viewBox="0 0 800 800" opacity="0.45" width="800" height="800"><g stroke-width="2" stroke="#e7e3e4" fill="none"><circle r="2.394736842105263" cx="0" cy="0" fill="#e7e3e4" stroke="none"></circle><circle r="2.394736842105263" cx="160" cy="0" fill="#e7e3e4" stroke="none"></circle><circle r="2.394736842105263" cx="320" cy="0" fill="#e7e3e4" stroke="none"></circle><circle r="2.394736842105263" cx="480" cy="0" fill="#e7e3e4" stroke="none"></circle><circle r="2.394736842105263" cx="640" cy="0" fill="#e7e3e4" stroke="none"></circle><circle r="2.394736842105263" cx="800" cy="0" fill="#e7e3e4" stroke="none"></circle><circle r="2.394736842105263" cx="0" cy="160" fill="#e7e3e4" stroke="none"></circle><circle r="2.394736842105263" cx="160" cy="160" fill="#e7e3e4" stroke="none"></circle><circle r="2.394736842105263" cx="320" cy="160" fill="#e7e3e4" stroke="none"></circle><circle r="2.394736842105263" cx="480" cy="160" fill="#e7e3e4" stroke="none"></circle><circle r="2.394736842105263" cx="640" cy="160" fill="#e7e3e4" stroke="none"></circle><circle r="2.394736842105263" cx="800" cy="160" fill="#e7e3e4" stroke="none"></circle><circle r="2.394736842105263" cx="0" cy="320" fill="#e7e3e4" stroke="none"></circle><circle r="2.394736842105263" cx="160" cy="320" fill="#e7e3e4" stroke="none"></circle><circle r="2.394736842105263" cx="320" cy="320" fill="#e7e3e4" stroke="none"></circle><circle r="2.394736842105263" cx="480" cy="320" fill="#e7e3e4" stroke="none"></circle><circle r="2.394736842105263" cx="640" cy="320" fill="#e7e3e4" stroke="none"></circle><circle r="2.394736842105263" cx="800" cy="320" fill="#e7e3e4" stroke="none"></circle><circle r="2.394736842105263" cx="0" cy="480" fill="#e7e3e4" stroke="none"></circle><circle r="2.394736842105263" cx="160" cy="480" fill="#e7e3e4" stroke="none"></circle><circle r="2.394736842105263" cx="320" cy="480" fill="#e7e3e4" stroke="none"></circle><circle r="2.394736842105263" cx="480" cy="480" fill="#e7e3e4" stroke="none"></circle><circle r="2.394736842105263" cx="640" cy="480" fill="#e7e3e4" stroke="none"></circle><circle r="2.394736842105263" cx="800" cy="480" fill="#e7e3e4" stroke="none"></circle><circle r="2.394736842105263" cx="0" cy="640" fill="#e7e3e4" stroke="none"></circle><circle r="2.394736842105263" cx="160" cy="640" fill="#e7e3e4" stroke="none"></circle><circle r="2.394736842105263" cx="320" cy="640" fill="#e7e3e4" stroke="none"></circle><circle r="2.394736842105263" cx="480" cy="640" fill="#e7e3e4" stroke="none"></circle><circle r="2.394736842105263" cx="640" cy="640" fill="#e7e3e4" stroke="none"></circle><circle r="2.394736842105263" cx="800" cy="640" fill="#e7e3e4" stroke="none"></circle><circle r="2.394736842105263" cx="0" cy="800" fill="#e7e3e4" stroke="none"></circle><circle r="2.394736842105263" cx="160" cy="800" fill="#e7e3e4" stroke="none"></circle><circle r="2.394736842105263" cx="320" cy="800" fill="#e7e3e4" stroke="none"></circle><circle r="2.394736842105263" cx="480" cy="800" fill="#e7e3e4" stroke="none"></circle><circle r="2.394736842105263" cx="640" cy="800" fill="#e7e3e4" stroke="none"></circle><circle r="2.394736842105263" cx="800" cy="800" fill="#e7e3e4" stroke="none"></circle></g></svg>