<svg xmlns="http://www.w3.org/2000/svg" version="1.1" xmlns:xlink="http://www.w3.org/1999/xlink" xmlns:svgjs="http://svgjs.dev/svgjs" viewBox="0 0 800 800" opacity="0.16" width="800" height="800"><g stroke-width="2" stroke="#f43098" fill="none"><rect width="160" height="160" x="0" y="0" opacity="0.15"></rect><circle r="7.302631578947368" cx="0" cy="0" fill="#f43098" stroke="none"></circle><rect width="160" height="160" x="160" y="0" opacity="0.15"></rect><circle r="7.302631578947368" cx="160" cy="0" fill="#f43098" stroke="none"></circle><rect width="160" height="160" x="320" y="0" opacity="0.15"></rect><circle r="7.302631578947368" cx="320" cy="0" fill="#f43098" stroke="none"></circle><rect width="160" height="160" x="480" y="0" opacity="0.15"></rect><circle r="7.302631578947368" cx="480" cy="0" fill="#f43098" stroke="none"></circle><rect width="160" height="160" x="640" y="0" opacity="0.15"></rect><circle r="7.302631578947368" cx="640" cy="0" fill="#f43098" stroke="none"></circle><rect width="160" height="160" x="800" y="0" opacity="0.15"></rect><circle r="7.302631578947368" cx="800" cy="0" fill="#f43098" stroke="none"></circle><rect width="160" height="160" x="0" y="160" opacity="0.15"></rect><circle r="7.302631578947368" cx="0" cy="160" fill="#f43098" stroke="none"></circle><rect width="160" height="160" x="160" y="160" opacity="0.15"></rect><circle r="7.302631578947368" cx="160" cy="160" fill="#f43098" stroke="none"></circle><rect width="160" height="160" x="320" y="160" opacity="0.15"></rect><circle r="7.302631578947368" cx="320" cy="160" fill="#f43098" stroke="none"></circle><rect width="160" height="160" x="480" y="160" opacity="0.15"></rect><circle r="7.302631578947368" cx="480" cy="160" fill="#f43098" stroke="none"></circle><rect width="160" height="160" x="640" y="160" opacity="0.15"></rect><circle r="7.302631578947368" cx="640" cy="160" fill="#f43098" stroke="none"></circle><rect width="160" height="160" x="800" y="160" opacity="0.15"></rect><circle r="7.302631578947368" cx="800" cy="160" fill="#f43098" stroke="none"></circle><rect width="160" height="160" x="0" y="320" opacity="0.15"></rect><circle r="7.302631578947368" cx="0" cy="320" fill="#f43098" stroke="none"></circle><rect width="160" height="160" x="160" y="320" opacity="0.15"></rect><circle r="7.302631578947368" cx="160" cy="320" fill="#f43098" stroke="none"></circle><rect width="160" height="160" x="320" y="320" opacity="0.15"></rect><circle r="7.302631578947368" cx="320" cy="320" fill="#f43098" stroke="none"></circle><rect width="160" height="160" x="480" y="320" opacity="0.15"></rect><circle r="7.302631578947368" cx="480" cy="320" fill="#f43098" stroke="none"></circle><rect width="160" height="160" x="640" y="320" opacity="0.15"></rect><circle r="7.302631578947368" cx="640" cy="320" fill="#f43098" stroke="none"></circle><rect width="160" height="160" x="800" y="320" opacity="0.15"></rect><circle r="7.302631578947368" cx="800" cy="320" fill="#f43098" stroke="none"></circle><rect width="160" height="160" x="0" y="480" opacity="0.15"></rect><circle r="7.302631578947368" cx="0" cy="480" fill="#f43098" stroke="none"></circle><rect width="160" height="160" x="160" y="480" opacity="0.15"></rect><circle r="7.302631578947368" cx="160" cy="480" fill="#f43098" stroke="none"></circle><rect width="160" height="160" x="320" y="480" opacity="0.15"></rect><circle r="7.302631578947368" cx="320" cy="480" fill="#f43098" stroke="none"></circle><rect width="160" height="160" x="480" y="480" opacity="0.15"></rect><circle r="7.302631578947368" cx="480" cy="480" fill="#f43098" stroke="none"></circle><rect width="160" height="160" x="640" y="480" opacity="0.15"></rect><circle r="7.302631578947368" cx="640" cy="480" fill="#f43098" stroke="none"></circle><rect width="160" height="160" x="800" y="480" opacity="0.15"></rect><circle r="7.302631578947368" cx="800" cy="480" fill="#f43098" stroke="none"></circle><rect width="160" height="160" x="0" y="640" opacity="0.15"></rect><circle r="7.302631578947368" cx="0" cy="640" fill="#f43098" stroke="none"></circle><rect width="160" height="160" x="160" y="640" opacity="0.15"></rect><circle r="7.302631578947368" cx="160" cy="640" fill="#f43098" stroke="none"></circle><rect width="160" height="160" x="320" y="640" opacity="0.15"></rect><circle r="7.302631578947368" cx="320" cy="640" fill="#f43098" stroke="none"></circle><rect width="160" height="160" x="480" y="640" opacity="0.15"></rect><circle r="7.302631578947368" cx="480" cy="640" fill="#f43098" stroke="none"></circle><rect width="160" height="160" x="640" y="640" opacity="0.15"></rect><circle r="7.302631578947368" cx="640" cy="640" fill="#f43098" stroke="none"></circle><rect width="160" height="160" x="800" y="640" opacity="0.15"></rect><circle r="7.302631578947368" cx="800" cy="640" fill="#f43098" stroke="none"></circle><rect width="160" height="160" x="0" y="800" opacity="0.15"></rect><circle r="7.302631578947368" cx="0" cy="800" fill="#f43098" stroke="none"></circle><rect width="160" height="160" x="160" y="800" opacity="0.15"></rect><circle r="7.302631578947368" cx="160" cy="800" fill="#f43098" stroke="none"></circle><rect width="160" height="160" x="320" y="800" opacity="0.15"></rect><circle r="7.302631578947368" cx="320" cy="800" fill="#f43098" stroke="none"></circle><rect width="160" height="160" x="480" y="800" opacity="0.15"></rect><circle r="7.302631578947368" cx="480" cy="800" fill="#f43098" stroke="none"></circle><rect width="160" height="160" x="640" y="800" opacity="0.15"></rect><circle r="7.302631578947368" cx="640" cy="800" fill="#f43098" stroke="none"></circle><rect width="160" height="160" x="800" y="800" opacity="0.15"></rect><circle r="7.302631578947368" cx="800" cy="800" fill="#f43098" stroke="none"></circle></g></svg>