<svg xmlns="http://www.w3.org/2000/svg" width="128" height="128" fill="none"><path fill="#D9D9D9" d="M65.235 16H22v30.38h43.235zM65.235 51.24H22V112h43.235zM90.559 51.24H70.177V112H106V66.43c0-1.994-.399-3.97-1.175-5.813a15.2 15.2 0 0 0-3.348-4.927 15.5 15.5 0 0 0-5.01-3.293 15.7 15.7 0 0 0-5.908-1.157M70.177 16H87.47c2.027 0 4.035.393 5.909 1.156a15.5 15.5 0 0 1 5.01 3.293 15.2 15.2 0 0 1 3.346 4.928 15 15 0 0 1 1.176 5.813c0 1.995-.4 3.97-1.176 5.813a15.2 15.2 0 0 1-3.347 4.928 15.5 15.5 0 0 1-5.01 3.293 15.7 15.7 0 0 1-5.908 1.156H70.177z"/></svg>